Coordinates
version=1
nRows=10
nColumns=63
inDegrees=yes

Units are S.I. units (second, meters, Newtons, ...)
If the header above contains a line with 'inDegrees', this indicates whether rotational values are in degrees (yes) or radians (no).

endheader
time	pelvis_tilt	pelvis_list	pelvis_rotation	pelvis_tx	pelvis_ty	pelvis_tz	hip_flexion_r	hip_adduction_r	hip_rotation_r	knee_angle_r	knee_angle_r_beta	ankle_angle_r	subtalar_angle_r	mtp_angle_r	hip_flexion_l	hip_adduction_l	hip_rotation_l	knee_angle_l	knee_angle_l_beta	ankle_angle_l	subtalar_angle_l	mtp_angle_l	L5_S1_Flex_Ext	L5_S1_Lat_Bending	L5_S1_axial_rotation	L4_L5_Flex_Ext	L4_L5_Lat_Bending	L4_L5_axial_rotation	L3_L4_Flex_Ext	L3_L4_Lat_Bending	L3_L4_axial_rotation	L2_L3_Flex_Ext	L2_L3_Lat_Bending	L2_L3_axial_rotation	L1_L2_Flex_Ext	L1_L2_Lat_Bending	L1_L2_axial_rotation	L1_T12_Flex_Ext	L1_T12_Lat_Bending	L1_T12_axial_rotation	Abs_r3	Abs_r2	Abs_r1	Abs_t1	Abs_t2	neck_flexion	neck_bending	neck_rotation	arm_flex_r	arm_add_r	arm_rot_r	elbow_flex_r	pro_sup_r	wrist_flex_r	wrist_dev_r	arm_flex_l	arm_add_l	arm_rot_l	elbow_flex_l	pro_sup_l	wrist_flex_l	wrist_dev_l
      0.00000000	      6.18584016	     -3.58846137	     88.54867519	      0.21429295	      0.69591476	      0.81116554	      5.78351720	      4.28772610	     17.29344959	      0.28712376	      0.00501126	     17.45754683	    -16.54870069	      0.00000000	      7.40434741	     -6.86174338	     17.65653605	      0.90228530	      0.01574785	     27.65193851	    -14.06612558	      0.00000000	      0.20880197	      0.75427391	     -1.03313594	      0.38776613	      1.00318430	     -1.09770694	      0.34304075	      1.83394158	     -1.09770694	      0.23863977	      1.83394158	     -0.90399395	      0.19389351	      1.53811535	     -0.83942295	      0.11930944	      1.16837028	     -0.77485196	      1.49145156	      8.53249731	     -5.74599217	      0.00000000	      0.00000000	      4.02451602	     -0.00647797	     13.74695362	     24.82559925	     -6.13716113	     87.83524615	     43.52847301	     86.52435235	      8.42885522	     -3.23068168	     14.22872872	     -4.12017359	     52.52850026	     53.92069507	     72.28335830	     -5.99518606	      9.69931747
      0.02777778	      6.06773186	     -3.24236945	     88.09544696	      0.21388641	      0.69563313	      0.81077536	      5.25558057	      4.01258788	     18.58776628	      0.29513364	      0.00515105	     17.05761341	    -16.12332029	      0.00000000	      6.79533683	     -6.77595274	     17.40809005	      0.90417515	      0.01578083	     27.18864013	    -14.24217172	      0.00000000	      0.17202619	      0.76649331	     -0.91465510	      0.31946983	      1.01943610	     -0.97182105	      0.28262182	      1.86365184	     -0.97182105	      0.19660873	      1.86365184	     -0.80032321	      0.15974352	      1.56303316	     -0.74315727	      0.09829576	      1.18729814	     -0.68599133	      1.22876585	      8.67072564	     -5.08703728	      0.00000000	      0.00000000	      4.85682004	     -0.24654468	     13.92125006	     23.73033425	     -6.04739032	     87.51843656	     42.89499467	     87.87776760	      6.91178648	     -2.93375107	     14.40993080	     -3.75655932	     52.44381680	     53.60196880	     71.84646712	     -5.59012868	     10.62728464
      0.05555556	      5.69568921	     -2.97812303	     86.85514726	      0.21479242	      0.69541900	      0.80981836	      4.89574663	      3.59197608	     20.82153895	      0.30979212	      0.00540689	     16.99880889	    -16.36481055	      0.00000000	      6.06974743	     -6.49225473	     16.49377652	      0.78789505	      0.01375136	     26.77571946	    -14.87662474	      0.00000000	      0.14824954	      0.73606517	     -0.63273774	      0.27531422	      0.97896668	     -0.67228385	      0.24355917	      1.78966886	     -0.67228385	      0.16943440	      1.78966886	     -0.55364552	      0.13766452	      1.50098410	     -0.51409941	      0.08470979	      1.14016496	     -0.47455331	      1.05893164	      8.32651647	     -3.51909749	      0.00000000	      0.00000000	      5.29536673	     -0.14765281	     13.68657673	     22.74642902	     -6.33408780	     87.04279303	     43.21249238	     88.58676634	      4.58746639	     -2.67175093	     14.54078482	     -3.61901767	     52.46951443	     53.54740368	     71.08519825	     -4.56301135	     12.45913802
      0.08333333	      5.36371385	     -2.88705388	     86.08938686	      0.21503889	      0.69531235	      0.80942702	      4.80263964	      3.18536355	     22.48737012	      0.31687316	      0.00553048	     17.11888408	    -16.58540824	      0.00000000	      5.74504635	     -6.18335985	     15.97578830	      0.73464299	      0.01282194	     26.47121711	    -15.05548405	      0.00000000	      0.14095658	      0.70829422	     -0.46553376	      0.26177047	      0.94203131	     -0.49462962	      0.23157757	      1.72214656	     -0.49462962	      0.16109928	      1.72214656	     -0.40734204	      0.13089228	      1.44435357	     -0.37824618	      0.08054259	      1.09714774	     -0.34915032	      1.00683876	      8.01236585	     -2.58915910	      0.00000000	      0.00000000	      5.49467480	     -0.04098199	     13.57650016	     22.37249715	     -6.33863613	     87.03988318	     43.11706382	     88.71391890	      3.85075377	     -2.24159613	     14.63146056	     -3.50996675	     52.51342974	     53.31920891	     70.77401927	     -4.24978912	     13.38144358
      0.11111111	      5.06536187	     -2.87021964	     85.36969760	      0.21545597	      0.69529357	      0.80909115	      4.83426535	      2.85940792	     23.77982481	      0.31826270	      0.00555473	     17.34211657	    -16.68370104	      0.00000000	      5.54604101	     -5.91432986	     15.44841589	      0.68727718	      0.01199525	     26.27059510	    -15.08637912	      0.00000000	      0.13809380	      0.67970384	     -0.33264650	      0.25645400	      0.90400611	     -0.35343691	      0.22687431	      1.65263192	     -0.35343691	      0.15782741	      1.65263192	     -0.29106569	      0.12823391	      1.38605208	     -0.27027529	      0.07890680	      1.05286125	     -0.24948488	      0.98639023	      7.68894581	     -1.85008007	      0.00000000	      0.00000000	      5.60410043	      0.17529962	     13.75026217	     22.21189985	     -6.34364094	     86.91802744	     43.18115392	     88.73404801	      3.69705839	     -1.78412227	     14.65014194	     -3.51845087	     52.57190474	     53.12417279	     70.61104996	     -4.29741487	     14.01074825
      0.13888889	      4.77476606	     -2.84967763	     84.71038325	      0.21579601	      0.69538583	      0.80885438	      4.89456803	      2.56665444	     24.48170848	      0.31984659	      0.00558238	     17.83592018	    -16.35697169	      0.00000000	      5.38980639	     -5.63508490	     14.44213731	      0.64871705	      0.01132225	     26.31431973	    -14.37776084	      0.00000000	      0.12956429	      0.65157405	     -0.21291617	      0.24061385	      0.86659349	     -0.22622343	      0.21286118	      1.58423715	     -0.22622343	      0.14807903	      1.58423715	     -0.18630165	      0.12031340	      1.32868981	     -0.17299439	      0.07403304	      1.00928821	     -0.15968713	      0.92546478	      7.37073600	     -1.18417585	      0.00000000	      0.00000000	      5.63564436	      0.43039544	     14.10573626	     22.18356635	     -6.38502675	     86.58315205	     43.31787458	     88.72388122	      4.05462811	     -1.22721797	     14.75091002	     -3.56754148	     52.90359646	     52.90463097	     70.13434439	     -4.76197688	     14.42907430
      0.16666667	      4.75448222	     -2.87746632	     84.57885750	      0.21567466	      0.69549720	      0.80860261	      4.96051480	      2.56208573	     24.48830968	      0.30994042	      0.00540948	     17.94600393	    -16.40026000	      0.00000000	      5.39005150	     -5.60228326	     14.47345420	      0.63985344	      0.01116755	     26.30661992	    -14.36079957	      0.00000000	      0.12840609	      0.64968793	     -0.21251668	      0.23846295	      0.86408495	     -0.22579897	      0.21095837	      1.57965123	     -0.22579897	      0.14675532	      1.57965123	     -0.18595209	      0.11923790	      1.32484363	     -0.17266980	      0.07337124	      1.00636660	     -0.15938751	      0.91719186	      7.34939980	     -1.18195399	      0.00000000	      0.00000000	      5.62214383	      0.42992935	     14.12260673	     22.30422985	     -6.39766699	     86.53525782	     43.34263115	     88.69409601	      4.06395794	     -1.22145474	     14.71197264	     -3.64548513	     52.89484896	     52.78174618	     70.13601125	     -4.78586325	     14.44963210
      0.19444444	      4.19218095	     -2.90118304	     83.67069197	      0.21625737	      0.69530849	      0.80827373	      5.08614843	      2.00006177	     25.67293858	      0.32017884	      0.00558817	     18.61593733	    -16.29392329	      0.00000000	      5.25276530	     -5.03438858	     13.82102949	      0.61681065	      0.01076538	     25.98395875	    -14.86115213	      0.00000000	      0.14506636	      0.59770598	     -0.04357567	      0.26940273	      0.79494896	     -0.04629915	      0.23832952	      1.45326233	     -0.04629915	      0.16579634	      1.45326233	     -0.03812871	      0.13470862	      1.21884204	     -0.03540523	      0.08289092	      0.92584657	     -0.03268175	      1.03619448	      6.76136963	     -0.24235482	      0.00000000	      0.00000000	      5.29854856	      0.69287440	     14.93747416	     22.29492386	     -6.36483827	     86.43503526	     43.47329753	     88.56852396	      4.57391554	     -0.54562891	     14.64330447	     -3.61086030	     52.85370212	     52.41686098	     69.97865740	     -4.91411648	     14.82905410
      0.22222222	      4.16113855	     -2.89972626	     83.56381354	      0.21605880	      0.69505051	      0.80826141	      5.07120182	      1.98106208	     25.64141451	      0.32243259	      0.00562751	     18.65817808	    -16.33806736	      0.00000000	      5.21701591	     -4.98542145	     13.80160011	      0.62357665	      0.01088347	     25.98891711	    -14.88218373	      0.00000000	      0.14689157	      0.59851681	     -0.04315327	      0.27279234	      0.79602736	     -0.04585035	      0.24132817	      1.45523377	     -0.04585035	      0.16788238	      1.45523377	     -0.03775911	      0.13640352	      1.22049548	     -0.03506203	      0.08393385	      0.92710254	     -0.03236495	      1.04923183	      6.77054185	     -0.24000555	      0.00000000	      0.00000000	      5.32004301	      0.69873910	     14.97177794	     22.31774720	     -6.39858858	     86.41497517	     43.44111516	     88.57117966	      4.57537527	     -0.52730470	     14.58305713	     -3.67946089	     52.87761201	     52.27920434	     69.97284613	     -4.92505995	     14.87375369
      0.25000000	      3.71845307	     -2.72106904	     82.91692995	      0.21633881	      0.69518746	      0.80816004	      4.93726647	      1.54162579	     26.13635468	      0.33616180	      0.00586713	     18.79559387	    -16.33573196	      0.00000000	      4.93748815	     -4.46991308	     13.16210887	      0.63044055	      0.01100326	     25.67467594	    -15.40914198	      0.00000000	      0.12647925	      0.56061536	      0.08837297	      0.23488461	      0.74561843	      0.09389628	      0.20779275	      1.36308020	      0.09389628	      0.14455313	      1.36308020	      0.07732635	      0.11744863	      1.14320685	      0.07180304	      0.07227024	      0.86839320	      0.06627973	      0.90342861	      6.34179312	      0.49150396	      0.00000000	      0.00000000	      5.19963113	      0.88913872	     16.00402474	     22.15937940	     -6.36426693	     86.00732979	     43.25365411	     88.56556014	      4.73536816	     -0.41032819	     14.78264027	     -3.49183130	     53.15244022	     51.62847186	     69.76501625	     -4.81908599	     15.20472872
